<svg width="64" height="64" viewBox="0 0 64 64" fill="none" xmlns="http://www.w3.org/2000/svg">
  <rect width="64" height="64" fill="#2874F0"/>
  <path d="M38.9597 23.9497C37.8397 23.9497 36.9197 23.0297 36.9197 21.9097C36.9197 20.7897 37.8397 19.8697 38.9597 19.8697C40.0797 19.8697 40.9997 20.7897 40.9997 21.9097C40.9997 23.0297 40.0797 23.9497 38.9597 23.9497Z" fill="#FDD835"/>
  <path d="M25.5798 38.7698V43.8598H21.4998V23.9498H28.6998C31.9198 23.9498 34.7198 26.2198 34.7198 30.0498C34.7198 33.8798 31.9198 36.1498 28.6998 36.1498H25.5798V38.7698ZM25.5798 27.6098V32.5498H28.2198C29.4698 32.5498 30.6398 31.5098 30.6398 30.0498C30.6398 28.5898 29.4698 27.6098 28.2198 27.6098H25.5798Z" fill="white"/>
  <path d="M42.4999 36.91C42.4999 33.59 45.2199 32.07 48.3399 32.07C49.0999 32.07 49.9199 32.19 50.5599 32.37V31.89C50.5599 30.61 49.7599 29.63 48.0399 29.63C46.5999 29.63 45.7399 30.37 45.5599 31.41H42.0199C42.3199 28.59 44.7399 26.47 48.1599 26.47C51.7599 26.47 54.4599 28.65 54.4599 32.01V43.87H50.7399V41.39H50.6599C49.9199 43.03 48.1599 44.05 46.0599 44.05C43.1199 44.05 42.4999 40.49 42.4999 36.91ZM50.5599 38.03V35.05C50.0399 34.75 49.2199 34.57 48.3999 34.57C47.0599 34.57 46.3799 35.41 46.3799 36.79C46.3799 38.17 47.0799 38.99 48.4199 38.99C49.5199 38.99 50.2599 38.45 50.5599 38.03Z" fill="white"/>
  <path d="M38.9604 44.05C38.0604 44.05 37.2604 43.39 37.2604 42.31V26.65H41.1004V43.87H38.9604V44.05Z" fill="white"/>
</svg>